<svg width="108" height="24" viewBox="0 0 108 24" fill="none" xmlns="http://www.w3.org/2000/svg">
<g clip-path="url(#clip0_819_8995)">
<path d="M11.984 -0.0224609C9.60571 -0.0224609 7.28079 0.682627 5.30328 2.00364C3.32577 3.32465 1.78449 5.20226 0.874342 7.39902C-0.0358054 9.59579 -0.273941 12.013 0.190048 14.3451C0.654037 16.6772 1.79931 18.8193 3.48104 20.5007C5.16278 22.182 7.30543 23.327 9.63807 23.7909C11.9707 24.2548 14.3885 24.0167 16.5858 23.1067C18.7831 22.1968 20.6612 20.6559 21.9825 18.6789C23.3038 16.7018 24.0091 14.3775 24.0091 11.9997C24.0091 8.81123 22.7422 5.75335 20.487 3.49875C18.2319 1.24416 15.1733 -0.0224609 11.984 -0.0224609ZM11.984 22.8995C9.82775 22.8995 7.71989 22.2602 5.927 21.0625C4.13411 19.8649 2.73673 18.1625 1.91155 16.1709C1.08638 14.1792 0.870475 11.9876 1.29115 9.87327C1.71182 7.75892 2.75017 5.81677 4.27489 4.29241C5.79962 2.76805 7.74223 1.72995 9.85709 1.30938C11.9719 0.888807 14.164 1.10466 16.1562 1.92964C18.1483 2.75461 19.8511 4.15166 21.049 5.94412C22.247 7.73658 22.8864 9.84394 22.8864 11.9997C22.8857 14.8903 21.7369 17.6623 19.6924 19.7063C17.648 21.7502 14.8753 22.8988 11.984 22.8995Z" fill="black"/>
<path d="M16.9482 4.49219H16.1249V8.60766H7.86708V4.49219H7.01884C5.77644 5.31162 4.75681 6.42642 4.05133 7.73669C3.34585 9.04697 2.97656 10.5118 2.97656 11.9998C2.97656 13.4879 3.34585 14.9527 4.05133 16.2629C4.75681 17.5732 5.77644 18.688 7.01884 19.5074H7.86708V15.3969H16.1249V19.5124H16.9482C18.1912 18.6934 19.2113 17.5787 19.9172 16.2684C20.623 14.9581 20.9925 13.4931 20.9925 12.0048C20.9925 10.5165 20.623 9.05152 19.9172 7.7412C19.2113 6.43088 18.1912 5.31621 16.9482 4.49718V4.49219ZM6.71946 17.8912C5.94573 17.2038 5.31499 16.3709 4.86327 15.4398C4.41154 14.5088 4.14768 13.4979 4.08675 12.4649C4.02583 11.4319 4.16902 10.397 4.50816 9.41937C4.8473 8.4417 5.37575 7.5404 6.06332 6.76692C6.26941 6.53678 6.48848 6.31859 6.71946 6.11343V17.8912ZM16.1249 14.2496H7.86708V9.73006H16.1249V14.2496ZM17.2476 17.8662V15.372V8.60766V6.11343C18.0195 6.80634 18.6472 7.64451 19.0949 8.58004C19.5426 9.51558 19.8015 10.5301 19.8569 11.5658C19.9123 12.6014 19.763 13.6378 19.4176 14.6157C19.0722 15.5936 18.5374 16.4939 17.8439 17.2651C17.6552 17.4737 17.4562 17.6726 17.2476 17.8612V17.8662Z" fill="black"/>
<path fill-rule="evenodd" clip-rule="evenodd" d="M46.1906 11.7002C46.8434 11.4476 47.4034 11.0018 47.7958 10.4223C48.1881 9.84285 48.3941 9.15738 48.386 8.45767C48.386 5.53943 46.3153 4.09277 43.4712 4.09277H36.0117V19.961H44.1199C46.6147 19.961 49.0596 18.2151 49.0596 15.5463C49.0596 12.3736 46.1906 11.7301 46.1906 11.7002ZM39.9036 7.38515H42.7976C42.983 7.37367 43.1687 7.39883 43.3443 7.45921C43.5199 7.51958 43.6818 7.61398 43.8208 7.737C43.9599 7.86002 44.0733 8.00924 44.1546 8.17613C44.2358 8.34302 44.2834 8.5243 44.2945 8.70959C44.2945 8.76612 44.2945 8.82349 44.2945 8.88169C44.2867 9.27179 44.1249 9.64299 43.8446 9.91442C43.5642 10.1858 43.1879 10.3355 42.7976 10.3308H39.8787L39.9036 7.38515ZM42.8226 16.6387H39.9286V13.5209H42.7477C44.1698 13.5209 44.8434 14.1445 44.8434 15.0674C44.8434 16.2197 43.9952 16.6387 42.8226 16.6387Z" fill="#ED0007"/>
<path fill-rule="evenodd" clip-rule="evenodd" d="M57.6423 3.69434C53.0518 3.69434 50.3574 7.36085 50.3574 12.0001C50.3574 16.6394 53.0518 20.3059 57.6423 20.3059C62.2328 20.3059 64.9272 16.6643 64.9272 12.0001C64.9272 7.33591 62.2577 3.69434 57.6423 3.69434ZM57.6423 16.5147C55.397 16.5147 54.2743 14.4943 54.2743 12.0001C54.2743 9.50588 55.397 7.5105 57.6423 7.5105C59.8876 7.5105 61.0353 9.53083 61.0353 12.0001C61.0353 14.5193 59.8876 16.5147 57.6423 16.5147Z" fill="#ED0007"/>
<path fill-rule="evenodd" clip-rule="evenodd" d="M73.3839 10.3285L72.835 10.2038C71.4878 9.92945 70.4151 9.58026 70.4151 8.60751C70.4151 7.55994 71.4379 7.13592 72.3361 7.13592C72.9488 7.14504 73.5531 7.28044 74.1112 7.53365C74.6692 7.78685 75.169 8.15243 75.5793 8.60751L78.0492 6.16317C76.9265 4.89112 75.1053 3.66895 72.2612 3.66895C68.9182 3.66895 66.3734 5.53961 66.3734 8.6574C66.3734 11.5008 68.4192 12.8976 70.914 13.4214L71.4629 13.5461C73.5336 13.9701 74.307 14.2943 74.307 15.292C74.307 16.2398 73.4587 16.8634 72.1614 16.8634C70.6146 16.8634 69.2175 16.19 68.1448 14.8181L65.625 17.3124C67.0221 18.9835 68.7934 20.2805 72.2113 20.2805C75.1802 20.2805 78.3486 18.5844 78.3486 15.1174C78.3985 11.5008 75.6542 10.8024 73.3839 10.3285Z" fill="#ED0007"/>
<path fill-rule="evenodd" clip-rule="evenodd" d="M87.2297 16.5141C85.4833 16.5141 83.6621 15.0675 83.6621 11.8998C83.6621 9.08134 85.3586 7.50997 87.1299 7.50997C88.527 7.50997 89.3503 8.15847 89.9989 9.28087L93.1923 7.16078C91.5956 4.74138 89.6996 3.71875 87.08 3.71875C82.2899 3.71875 79.6953 7.43515 79.6953 11.9248C79.6953 16.6388 82.5644 20.3303 87.0301 20.3303C90.1736 20.3303 91.6705 19.2328 93.2921 16.8883L90.0738 14.7233C89.4251 15.7659 88.7266 16.5141 87.2297 16.5141Z" fill="#ED0007"/>
<path fill-rule="evenodd" clip-rule="evenodd" d="M103.847 4.09277V9.92926H99.0316V4.09277H94.8652V19.9561H99.0316V13.6955H103.847V19.9561H108.013V4.09277H103.847Z" fill="#ED0007"/>
</g>
<defs>
<clipPath id="clip0_819_8995">
<rect width="108" height="24" fill="white"/>
</clipPath>
</defs>
</svg>
